/vscmnt/brussel_pixiu_data/_data_brussel/112/vsc11236/PredSimResults/SUBJ11opt3D/weighted-LRposFixed/expIG/worker_03.mot
version=1
nRows=10
nColumns=50
inDegrees=yes
endheader
                time	         pelvis_tilt	         pelvis_list	     pelvis_rotation	           pelvis_tx	           pelvis_ty	           pelvis_tz	       hip_flexion_r	     hip_adduction_r	      hip_rotation_r	        knee_angle_r	       ankle_angle_r	         mtp_angle_r	       hip_flexion_l	     hip_adduction_l	      hip_rotation_l	        knee_angle_l	       ankle_angle_l	         mtp_angle_l	    lumbar_extension	      lumbar_bending	     lumbar_rotation	 ercspn_r/activation	 intobl_r/activation	 extobl_r/activation	    abd_r/activation	    add_r/activation	hamstrings_r/activation	bifemsh_r/activation	glut_max_r/activation	iliopsoas_r/activation	rect_fem_r/activation	  vasti_r/activation	gastroc_r/activation	 soleus_r/activation	tib_ant_r/activation	 ercspn_l/activation	 intobl_l/activation	 extobl_l/activation	    abd_l/activation	    add_l/activation	hamstrings_l/activation	bifemsh_l/activation	glut_max_l/activation	iliopsoas_l/activation	rect_fem_l/activation	  vasti_l/activation	gastroc_l/activation	 soleus_l/activation	tib_ant_l/activation	
          1.39273661	         -2.81524592	         -1.38080441	          6.08007890	          1.46237344	          0.94159829	         -0.00485810	         31.11406039	         -1.47162250	         -4.09582258	         -9.63993663	          1.81392649	          0.22588753	        -13.57724609	         -3.29614212	         -1.20332520	        -11.82008675	         13.11623589	         28.88702343	        -14.27347303	         -2.36867059	         -3.29291522	          0.02948092	          0.26125686	          0.07020868	          0.00999999	          0.20504960	          0.04430744	          0.14012953	          0.03455842	          0.11200255	          0.04426431	          0.01849158	          0.00999999	          0.00999999	          0.41062753	          0.00999999	          0.00999999	          0.00999999	          0.04255779	          0.00999999	          0.02242961	          0.30800996	          0.02839681	          0.19425479	          0.00999999	          0.00999999	          0.17190311	          0.33826222	          0.01496490	
          1.40666398	         -2.96402251	         -1.44163247	          6.19878932	          1.48104993	          0.93925088	         -0.00358916	         30.98842429	         -1.27593440	         -4.31258717	        -10.85405091	          1.29219925	          0.23262972	        -14.11815648	         -3.56504279	         -1.54397027	        -12.56926742	         12.38348758	         30.72086440	        -13.80594249	         -1.84487971	         -3.49951350	          0.02392693	          0.21203801	          0.05698188	          0.00999999	          0.23787963	          0.04230784	          0.11373017	          0.09908180	          0.09090210	          0.03592524	          0.01500790	          0.01267536	          0.01232123	          0.43298309	          0.01539261	          0.00999999	          0.00999999	          0.03454022	          0.06086914	          0.02991801	          0.26196917	          0.02304706	          0.22996899	          0.00999999	          0.00999999	          0.14310176	          0.31893922	          0.01214563	
          1.42059134	         -3.08967649	         -1.51250031	          6.29774397	          1.50019091	          0.93717353	         -0.00226588	         30.74584187	         -1.09969708	         -4.43228337	        -12.17863196	          0.81869004	          0.20885944	        -14.51628452	         -3.85627292	         -1.89344699	        -13.63875058	         11.50144549	         32.65065673	        -13.29908627	         -1.30107256	         -3.70467609	          0.01941928	          0.17209162	          0.04624692	          0.05092670	          0.22444707	          0.05156096	          0.09230425	          0.12278037	          0.07377682	          0.02915720	          0.01218053	          0.01028741	          0.01000000	          0.50270609	          0.01249276	          0.00999999	          0.00999999	          0.02803310	          0.04940185	          0.02929643	          0.21261616	          0.01870516	          0.21646808	          0.00999999	          0.00999999	          0.11614246	          0.29344542	          0.00999999	
          1.43451871	         -3.19539553	         -1.57661778	          6.36618148	          1.51943143	          0.93558988	         -0.00085250	         30.49131547	         -0.94029040	         -4.63293310	        -13.47368392	          0.10887150	          0.18118177	        -14.67212919	         -4.15248006	         -2.25505468	        -15.14478480	         10.41952102	         34.68419496	        -12.79675643	         -0.76293361	         -3.89720950	          0.02824247	          0.13967084	          0.03753434	          0.08787167	          0.26989812	          0.05061380	          0.07491482	          0.12846269	          0.05987782	          0.02366420	          0.02540824	          0.00999999	          0.00999999	          0.56242756	          0.03828893	          0.00999999	          0.00999999	          0.02275187	          0.04682247	          0.03361664	          0.17256086	          0.01518125	          0.19720362	          0.00999999	          0.00999999	          0.09426208	          0.26471657	          0.00999999	
          1.44844607	         -3.28045815	         -1.63292653	          6.40490591	          1.53854372	          0.93462617	          0.00064221	         30.31629395	         -0.80232523	         -4.90376599	        -14.94614313	         -0.45838076	          0.13413308	        -14.51900032	         -4.45510201	         -2.62387200	        -17.16959328	          9.11501945	         36.77361381	        -12.32273533	         -0.23326536	         -4.07278024	          0.03298313	          0.11335789	          0.03046315	          0.11650934	          0.30066704	          0.05628741	          0.06080143	          0.12954526	          0.04859728	          0.01920604	          0.11082675	          0.00999999	          0.00999999	          0.59929436	          0.06820862	          0.00999999	          0.00999999	          0.01846559	          0.11261569	          0.03350470	          0.14005169	          0.01232122	          0.16005195	          0.00999999	          0.00999999	          0.07650381	          0.22053307	          0.00999999	
          1.46237344	         -3.34664452	         -1.68012082	          6.41223846	          1.55736078	          0.93443380	          0.00218789	         30.15430541	         -0.67406528	         -5.19275233	        -16.49930230	         -0.67262966	          0.07771798	        -13.99752266	         -4.76268932	         -3.00222595	        -19.78162237	          7.57339472	         38.76737388	        -11.89029777	          0.28659265	         -4.22534489	          0.02676936	          0.09200211	          0.02472412	          0.13300013	          0.31955663	          0.05789843	          0.04934689	          0.14461138	          0.03944192	          0.01558776	          0.16337879	          0.00999999	          0.00999999	          0.58989649	          0.09353020	          0.00999999	          0.00999999	          0.01498681	          0.17376849	          0.04378969	          0.11366701	          0.00999999	          0.12989935	          0.00999999	          0.00999999	          0.06209106	          0.17898628	          0.00999999	
          1.47630081	         -3.39607603	         -1.71747739	          6.38589029	          1.57570614	          0.93510605	          0.00374654	         29.94251356	         -0.54091635	         -5.44360143	        -18.03453344	         -0.39057246	          0.04102157	        -13.06234209	         -5.07544147	         -3.39653949	        -23.02102952	          5.81583666	         40.38849352	        -11.51421225	          0.79808235	         -4.34873321	          0.02172621	          0.07466960	          0.02006628	          0.14524954	          0.32632527	          0.06196127	          0.04005031	          0.13639319	          0.03201135	          0.01265115	          0.21135386	          0.00999999	          0.00999999	          0.52234160	          0.10671902	          0.00999999	          0.00999999	          0.01216340	          0.22136466	          0.05743102	          0.10192612	          0.00999999	          0.10542728	          0.00999999	          0.00999999	          0.05039356	          0.14526660	          0.00999999	
          1.49022817	         -3.43086543	         -1.73284246	          6.32484475	          1.59347429	          0.93665036	          0.00527270	         29.59368419	         -0.39640876	         -5.59813407	        -19.37273096	          0.31913581	          0.09873985	        -11.69856625	         -5.38859788	         -3.83617639	        -26.91307688	          4.06695284	         40.95131854	        -11.20248458	          1.29142098	         -4.44016430	          0.01763316	          0.06060240	          0.01628594	          0.14830025	          0.30931915	          0.06346844	          0.03250513	          0.12544922	          0.02598065	          0.01026777	          0.26794596	          0.00999999	          0.00999999	          0.42844964	          0.10275837	          0.00999999	          0.00999999	          0.00999999	          0.27101582	          0.06277016	          0.08272401	          0.00999999	          0.08556557	          0.00999999	          0.00999999	          0.04089979	          0.11789945	          0.00999999	
          1.50415554	         -3.45379972	         -1.70555830	          6.22098247	          1.61061789	          0.93907270	          0.00671969	         29.00257663	         -0.24859074	         -5.64141210	        -20.28209716	          1.21087987	          0.30925600	         -9.93007138	         -5.68878590	         -4.31362531	        -31.36777159	          2.23977297	         40.35884225	        -10.95971992	          1.74865823	         -4.49214044	          0.01431120	          0.04918536	          0.01321779	          0.13696062	          0.28853524	          0.06846227	          0.02638141	          0.10181552	          0.02108609	          0.00999999	          0.29284788	          0.00999999	          0.00999999	          0.34993189	          0.08533397	          0.00999999	          0.03044219	          0.00999999	          0.31019002	          0.05311675	          0.07251716	          0.00999999	          0.06944565	          0.00999999	          0.00999999	          0.03319457	          0.09568807	          0.00999999	
          1.51808290	         -3.46697724	         -1.61386055	          6.06557742	          1.62712053	          0.94227768	          0.00806770	         28.13730976	         -0.12080621	         -5.58551430	        -20.66114755	          2.02816502	          0.61977981	         -7.82558290	         -5.95625176	         -4.79831149	        -36.16818475	          0.13208679	         38.81140975	        -10.79133601	          2.14735236	         -4.50321259	          0.01161508	          0.03991920	          0.01072766	          0.11525836	          0.26595485	          0.06929534	          0.02141135	          0.08263423	          0.01711363	          0.00999999	          0.28961852	          0.00999999	          0.00999999	          0.29455578	          0.06976741	          0.01179121	          0.06005044	          0.00999999	          0.32129692	          0.04310995	          0.07820728	          0.00999999	          0.05636261	          0.00999999	          0.00999999	          0.02694096	          0.07766115	          0.00999999	
